<svg width="18" height="23" fill="none" xmlns="http://www.w3.org/2000/svg"><path d="M9 11.5c.619 0 1.149-.225 1.59-.676.44-.45.66-.992.66-1.624 0-.632-.22-1.174-.66-1.625A2.146 2.146 0 009 6.9a2.14 2.14 0 00-1.588.675A2.24 2.24 0 006.75 9.2c0 .633.22 1.174.662 1.624.44.45.97.676 1.588.676zM9 23c-3.019-2.626-5.273-5.065-6.764-7.318C.746 13.431 0 11.348 0 9.43c0-2.875.905-5.165 2.715-6.871C4.524.853 6.619 0 9 0c2.381 0 4.476.853 6.285 2.559C17.095 4.265 18 6.555 18 9.43c0 1.917-.745 4-2.235 6.252C14.274 17.935 12.019 20.374 9 23z" fill="#D1FDFF"/></svg>