<svg width="19" height="18" fill="none" xmlns="http://www.w3.org/2000/svg"><path d="M13.165 10.884h-.802l-.284-.267a6.307 6.307 0 001.594-4.185 6.315 6.315 0 00-1.112-3.574A6.567 6.567 0 009.598.49 6.763 6.763 0 005.784.124a6.657 6.657 0 00-3.38 1.76A6.382 6.382 0 00.599 5.177a6.278 6.278 0 00.376 3.716 6.47 6.47 0 002.43 2.886 6.726 6.726 0 003.668 1.084 6.674 6.674 0 004.296-1.553l.274.277v.781l5.078 4.938 1.513-1.474-5.068-4.948zm-6.093 0c-2.528 0-4.57-1.989-4.57-4.452 0-2.464 2.042-4.453 4.57-4.453 2.529 0 4.57 1.989 4.57 4.453 0 2.463-2.041 4.452-4.57 4.452z" fill="#D1FDFF"/></svg>