<svg width="30" height="30" fill="none" xmlns="http://www.w3.org/2000/svg"><path d="M30 15a15 15 0 11-30 0 15 15 0 0130 0zm-14.462-3.926c-1.459.607-4.376 1.864-8.749 3.768-.708.282-1.082.56-1.115.83-.057.455.515.635 1.293.88l.329.104c.765.249 1.796.54 2.33.55.488.012 1.03-.187 1.628-.6 4.085-2.757 6.195-4.15 6.326-4.18.094-.023.225-.05.311.03.088.077.079.225.07.264-.057.242-2.301 2.327-3.462 3.407-.362.337-.618.576-.67.63a15.25 15.25 0 01-.353.349c-.713.686-1.245 1.2.028 2.04.613.405 1.104.736 1.594 1.07.532.364 1.065.726 1.754 1.18.175.112.344.234.507.35.62.443 1.181.84 1.87.777.4-.038.815-.413 1.025-1.538.497-2.657 1.473-8.411 1.698-10.783a2.671 2.671 0 00-.024-.59.632.632 0 00-.214-.408.986.986 0 00-.58-.174c-.563.01-1.431.311-5.596 2.044z" fill="#D1FDFF" fill-opacity=".5"/></svg>