<svg width="20" height="20" fill="none" xmlns="http://www.w3.org/2000/svg"><path fill-rule="evenodd" clip-rule="evenodd" d="M10 20c5.523 0 10-4.477 10-10S15.523 0 10 0 0 4.477 0 10s4.477 10 10 10zm4-6.464v-1.572a.222.222 0 00-.2-.22 6.178 6.178 0 01-2.022-.564.205.205 0 00-.254.065l-.685.958A5.799 5.799 0 017.798 9.16l.959-.685a.203.203 0 00.065-.252A6.178 6.178 0 018.257 6.2a.222.222 0 00-.222-.2H6.464a.444.444 0 00-.444.413A6.98 6.98 0 006 6.89 7.11 7.11 0 0013.11 14c.123 0 .282-.007.476-.02a.445.445 0 00.414-.444z" fill="#D1FDFF"/></svg>