<svg width="30" height="29" fill="none" xmlns="http://www.w3.org/2000/svg"><path d="M.006 29l2.028-7.204A14.066 14.066 0 010 14.5C0 6.492 6.716 0 15 0c8.285 0 15 6.492 15 14.5S23.285 29 15 29a15.328 15.328 0 01-7.545-1.965L.006 29zm9.58-21.303a1.48 1.48 0 00-.556.145c-.163.089-.311.2-.441.33-.18.164-.282.306-.391.444a3.872 3.872 0 00-.848 2.433c.003.71.195 1.402.495 2.049.614 1.308 1.623 2.692 2.957 3.976.32.309.634.619.972.907a14.334 14.334 0 005.76 2.967l.853.126c.277.015.555-.006.834-.019a3.064 3.064 0 001.25-.334c.196-.098.388-.205.574-.32 0 0 .064-.04.188-.13.202-.145.326-.248.494-.418.125-.124.233-.27.316-.438.117-.236.233-.687.282-1.062.035-.288.025-.444.02-.541-.005-.155-.139-.316-.284-.385l-.873-.378s-1.305-.55-2.102-.9a.77.77 0 00-.265-.06.747.747 0 00-.568.184v-.003c-.007 0-.108.083-1.192 1.353a.542.542 0 01-.552.189 2.188 2.188 0 01-.287-.096c-.186-.075-.25-.104-.378-.158l-.007-.003a9.057 9.057 0 01-2.355-1.45c-.189-.16-.364-.333-.544-.502a9.194 9.194 0 01-1.53-1.838l-.089-.138a1.322 1.322 0 01-.153-.297c-.057-.213.091-.384.091-.384s.365-.386.534-.595a6.27 6.27 0 00.395-.54c.177-.276.232-.559.14-.778-.42-.992-.856-1.98-1.303-2.96-.088-.194-.35-.333-.589-.36a6.88 6.88 0 00-.243-.024 5.255 5.255 0 00-.604.008z" fill="#D1FDFF" fill-opacity=".5"/></svg>